<?xml version="1.0" standalone="no"?><!DOCTYPE svg PUBLIC "-//W3C//DTD SVG 1.1//EN" "http://www.w3.org/Graphics/SVG/1.1/DTD/svg11.dtd"><svg t="1496890931422" class="icon" style="" viewBox="0 0 1024 1024" version="1.1" xmlns="http://www.w3.org/2000/svg" p-id="3984" xmlns:xlink="http://www.w3.org/1999/xlink" width="24" height="24"><defs><style type="text/css"></style></defs><path d="M736 412.8 288 412.8c-17.6 0-32-14.4-32-32s14.4-32 32-32l448 0c17.6 0 32 14.4 32 32S753.6 412.8 736 412.8z" p-id="3985" fill="#ffffff"></path><path d="M736 609.6 288 609.6c-17.6 0-32-14.4-32-32s14.4-32 32-32l448 0c17.6 0 32 14.4 32 32S753.6 609.6 736 609.6z" p-id="3986" fill="#ffffff"></path><path d="M736 804.8 288 804.8c-17.6 0-32-14.4-32-32s14.4-32 32-32l448 0c17.6 0 32 14.4 32 32S753.6 804.8 736 804.8z" p-id="3987" fill="#ffffff"></path><path d="M816 92.8l-70.4 0 0 64L784 156.8c27.2 0 48 20.8 48 48l0 678.4c0 27.2-20.8 48-48 48L240 931.2c-27.2 0-48-20.8-48-48L192 204.8c0-27.2 20.8-48 48-48l38.4 0 0-64L208 92.8c-44.8 0-80 35.2-80 80l0 742.4c0 44.8 35.2 80 80 80l608 0c44.8 0 80-35.2 80-80L896 172.8C896 128 860.8 92.8 816 92.8z" p-id="3988" fill="#ffffff"></path><path d="M603.2 28.8c-76.8 0-187.2 0-187.2 0s-68.8-4.8-78.4 70.4l0 48c0 0 4.8 68.8 76.8 68.8l204.8 0c0 0 62.4-3.2 67.2-73.6L686.4 94.4C686.4 94.4 680 28.8 603.2 28.8zM624 137.6c0 9.6-6.4 16-16 16L416 153.6c-9.6 0-16-6.4-16-16L400 107.2c0-9.6 6.4-16 16-16l192 0c9.6 0 16 6.4 16 16L624 137.6 624 137.6z" p-id="3989" fill="#ffffff"></path></svg>