<?xml version="1.0" standalone="no"?><!DOCTYPE svg PUBLIC "-//W3C//DTD SVG 1.1//EN" "http://www.w3.org/Graphics/SVG/1.1/DTD/svg11.dtd"><svg t="1517907568602" class="icon" style="" viewBox="0 0 1570 1024" version="1.1" xmlns="http://www.w3.org/2000/svg" p-id="11078" xmlns:xlink="http://www.w3.org/1999/xlink" width="306.640625" height="200"><defs><style type="text/css"></style></defs><path d="M1173.6368 299.841123c9.269536 30.457048 14.188066 62.238315 14.188066 94.77628 0 217.92869-216.982819 394.806577-484.853501 394.806576-55.995566 0-109.721042-7.756143-159.852207-21.944208l76.048032-45.780159c25.349344 3.972658 51.455385 6.431923 78.318123 6.431923 234.765195 0 425.07445-163.068169 425.074451-364.160355C1122.370589 163.068169 932.061334 0 697.485313 0S272.410863 162.878995 272.410863 363.97118c0 116.531314 64.130057 220.009607 163.446517 286.598929v181.418068l95.722151-57.887309c77.561426 88.53353 201.092185 145.853316 340.13523 145.853316 26.862738 0 52.779605-2.459265 78.318123-6.431923l183.30981 110.477739v-181.228893c99.31646-66.589322 163.446518-170.067615 163.446517-286.598929 0-100.073157-47.104378-190.687604-123.152411-256.331055M909.927951 319.89359c27.051912 0 48.99612 21.56586 48.996121 48.050249 0 26.484389-21.944208 48.050249-48.996121 48.050249-27.051912 0-48.99612-21.56586-48.99612-48.050249 0-26.484389 21.944208-48.050249 48.99612-48.050249m-196.173656 0c27.051912 0 48.99612 21.56586 48.996121 48.050249 0 26.484389-21.944208 48.050249-48.996121 48.050249-27.051912 0-48.99612-21.56586-48.99612-48.050249 0-26.484389 21.755034-48.050249 48.99612-48.050249m-245.169776 48.050249c0-26.484389 21.944208-48.050249 48.99612-48.050249 27.051912 0 48.99612 21.56586 48.996121 48.050249 0 26.484389-21.944208 48.050249-48.996121 48.050249-27.051912 0-48.99612-21.56586-48.99612-48.050249m0 0z" p-id="11079" fill="#030222"></path></svg>