<?xml version="1.0" standalone="no"?><!DOCTYPE svg PUBLIC "-//W3C//DTD SVG 1.1//EN" "http://www.w3.org/Graphics/SVG/1.1/DTD/svg11.dtd"><svg t="1519440523436" class="icon" style="" viewBox="0 0 1024 1024" version="1.1" xmlns="http://www.w3.org/2000/svg" p-id="5354" xmlns:xlink="http://www.w3.org/1999/xlink" width="200" height="200"><defs><style type="text/css"></style></defs><path d="M417.92 720.853333c230.826667 0 417.92-158.933333 417.92-355.2S648.746667 10.666667 417.92 10.666667 0 170.666667 0 365.866667c0 116.053333 65.706667 218.666667 167.253333 283.52V802.773333h42.666667v-3.2l104.533333-80.426666zM192 616.533333C101.12 559.36 42.666667 469.333333 42.666667 365.866667 42.666667 192 210.133333 52.48 417.92 52.48S794.026667 192 794.026667 365.866667s-168.32 313.173333-376.106667 313.173333c-36.053333 0-62.72 3.413333-104.533333 0L209.066667 744.533333v-118.186666z m832-42.666666a331.733333 331.733333 0 0 0-132.053333-258.56c-2.56 15.786667-5.333333 31.36-9.386667 46.72A285.866667 285.866667 0 0 1 981.333333 574.72c0 102.4-58.453333 193.28-149.333333 250.666667l-16.64 9.813333v118.4l-104.533333-65.493333c-42.666667 3.413333-68.48 0-104.533334 0A416 416 0 0 1 341.333333 797.226667c-18.346667 2.346667-36.906667 4.266667-55.68 5.333333a449.493333 449.493333 0 0 0 320 128h104.533334l104.533333 80.213333v3.2h42.666667V858.24C958.293333 793.6 1024 690.773333 1024 574.72z m-752.426667-208a42.666667 42.666667 0 1 0-42.666666 42.666666 42.666667 42.666667 0 0 0 42.666666-42.666666z m146.346667 42.666666a42.666667 42.666667 0 1 0-42.666667-42.666666 42.666667 42.666667 0 0 0 42.666667 41.6z m188.16 0a42.666667 42.666667 0 1 0-42.666667-42.666666 42.666667 42.666667 0 0 0 42.666667 41.6z" p-id="5355" fill="#F95E5A"></path></svg>