<?xml version="1.0" standalone="no"?><!DOCTYPE svg PUBLIC "-//W3C//DTD SVG 1.1//EN" "http://www.w3.org/Graphics/SVG/1.1/DTD/svg11.dtd"><svg t="1496891344064" class="icon" style="" viewBox="0 0 1024 1024" version="1.1" xmlns="http://www.w3.org/2000/svg" p-id="12304" xmlns:xlink="http://www.w3.org/1999/xlink" width="24" height="24"><defs><style type="text/css"></style></defs><path d="M982.8864 386.52416c-19.09248 133.28384-133.2736 298.9056-464.0512 596.31104l0 2.7648c-0.52224-0.46592-1.00864-0.91648-1.53088-1.3824-0.51712 0.46592-1.00352 0.91648-1.52064 1.3824l0-2.75456C184.73472 686.12096 70.45632 520.86784 51.3536 387.8912c-19.15904-133.39136 41.31328-256.43008 189.44-308.92544 136.59136-48.41984 257.62304 72.33536 275.65056 91.43296 9.60512-10.5472 134.94784-144.06656 277.15584-93.51168C941.59872 129.5104 1002.03008 252.8256 982.8864 386.52416zM757.09952 146.14016c-114.7648-40.79616-232.88832 98.14528-240.64 106.65472-14.54592-15.4112-129.18272-150.28736-239.42656-111.21664C157.49632 183.94112 108.68224 283.21792 124.14976 390.8608c15.42144 107.30496 124.60544 265.60512 391.77728 505.04704l0 2.2272c0.41984-0.37376 0.81408-0.73728 1.2288-1.11616 0.41984 0.37888 0.81408 0.7424 1.23904 1.11616l0-2.23232c266.9568-239.98976 376.064-392.35584 391.46496-499.90656C925.31712 288.11264 876.544 188.60544 757.09952 146.14016z" p-id="12305" fill="#ffffff"></path></svg>