<?xml version="1.0" standalone="no"?><!DOCTYPE svg PUBLIC "-//W3C//DTD SVG 1.1//EN" "http://www.w3.org/Graphics/SVG/1.1/DTD/svg11.dtd"><svg t="1496892106741" class="icon" style="" viewBox="0 0 1024 1024" version="1.1" xmlns="http://www.w3.org/2000/svg" p-id="4693" xmlns:xlink="http://www.w3.org/1999/xlink" width="24" height="24"><defs><style type="text/css"></style></defs><path d="M924.672 176.64l-165.376 0-71.68-91.648c-4.608-6.144-11.776-9.728-19.456-9.728l-301.056 0c-7.68 0-15.36 3.584-19.968 10.24l-67.072 91.136-180.224 0c-45.056 0-81.408 36.352-81.408 81.408l0 571.392c0 45.056 36.352 81.408 81.408 81.408l824.832 0c45.056 0 81.408-36.352 81.408-81.408L1006.08 258.048C1006.08 213.504 969.216 176.64 924.672 176.64L924.672 176.64M67.584 258.048c0-17.408 14.336-31.744 31.744-31.744l192.512 0c7.68 0 15.36-3.584 19.968-10.24l67.072-91.136 275.968 0 71.68 91.648c4.608 6.144 11.776 9.728 19.456 9.728l177.664 0c17.408 0 31.744 14.336 31.744 31.744l0 571.904c-0.512 17.408-14.336 31.232-31.744 31.232l-824.832 0c-17.408 0-31.744-14.336-31.744-31.744L67.072 258.048 67.584 258.048M67.584 258.048" p-id="4694" fill="#ffffff"></path><path d="M531.968 790.528c134.144 0 243.2-109.056 243.2-243.2 0-134.144-109.056-243.2-243.2-243.2-134.144 0-243.2 109.056-243.2 243.2C288.768 681.472 397.824 790.528 531.968 790.528L531.968 790.528M531.968 353.792c106.496 0 193.536 86.528 193.536 193.536 0 106.496-86.528 193.536-193.536 193.536-106.496 0-193.536-86.528-193.536-193.536C338.432 440.832 424.96 353.792 531.968 353.792L531.968 353.792M531.968 353.792" p-id="4695" fill="#ffffff"></path><path d="M860.16 364.032c18.944 0 34.816-15.36 34.816-34.816 0-18.944-15.36-34.816-34.816-34.816-18.944 0-34.816 15.36-34.816 34.816C825.344 348.672 841.216 364.032 860.16 364.032L860.16 364.032M860.16 364.032" p-id="4696" fill="#ffffff"></path></svg>