<?xml version="1.0" standalone="no"?><!DOCTYPE svg PUBLIC "-//W3C//DTD SVG 1.1//EN" "http://www.w3.org/Graphics/SVG/1.1/DTD/svg11.dtd"><svg t="1496892260607" class="icon" style="" viewBox="0 0 1024 1024" version="1.1" xmlns="http://www.w3.org/2000/svg" p-id="7007" xmlns:xlink="http://www.w3.org/1999/xlink" width="41" height="41"><defs><style type="text/css"></style></defs><path d="M960 0l-640 144c0 0-48 10.912-48 48l0 650.56c-24-6.688-51.168-10.56-80-10.56-97.216 0-176 42.976-176 96s78.784 96 176 96 176-42.976 176-96l0-510.016 544-118.624 0 399.232c-24-6.688-51.168-10.56-80-10.56-97.216 0-176 42.976-176 96s78.784 96 176 96 176-42.976 176-96l0-736c0-26.528-21.504-48-48-48z" p-id="7008" fill="#ffffff"></path></svg>