<?xml version="1.0" standalone="no"?><!DOCTYPE svg PUBLIC "-//W3C//DTD SVG 1.1//EN" "http://www.w3.org/Graphics/SVG/1.1/DTD/svg11.dtd"><svg t="1496892325069" class="icon" style="" viewBox="0 0 1024 1024" version="1.1" xmlns="http://www.w3.org/2000/svg" p-id="8466" xmlns:xlink="http://www.w3.org/1999/xlink" width="41" height="41"><defs><style type="text/css"></style></defs><path d="M758.8864 438.272c62.7712 0 113.664-50.8928 113.664-113.664s-50.8928-113.664-113.664-113.664-113.664 50.8928-113.664 113.664S696.1152 438.272 758.8864 438.272zM407.552 582.0416c7.9872 16.4864 17.408 13.824 30.9248 1.024 22.2208-21.0944 82.6368-82.6368 82.6368-82.6368s12.288-25.8048 0-41.3696c-12.288-15.4624-15.4624-46.4896-41.3696-20.6848l-82.6368 82.6368c-16.7936 16.1792-7.0656 29.696 0 41.3696C399.9744 566.9888 403.8656 574.5664 407.552 582.0416zM1002.8032 393.5232c-14.2336-17.2032-39.7312-19.5584-56.9344-5.2224l-115.3024 96.6656L734.8224 517.12l-92.9792-66.4576-63.0784-146.1248L559.4112 84.7872c-2.048-22.6304-21.2992-39.424-43.4176-37.2736-22.016 2.048-38.1952 22.1184-36.2496 44.7488L500.3264 325.632 573.44 495.0016 455.5776 625.9712l-182.4768 39.7312-187.8016-48.128c-21.8112-7.168-43.9296 5.12-52.8384 26.3168-12.4928 29.4912 11.9808 55.9104 33.8944 63.1808l227.328 82.6368 165.376-62.0544L335.1552 851.7632l-184.832-67.1744c-21.4016-8.4992-54.5792 4.5056-63.1808 25.9072-8.6016 21.2992-0.7168 53.4528 20.6848 62.0544 0 0 178.9952 63.3856 227.328 82.6368 15.2576 6.0416 40.96 0.3072 62.0544-20.6848 24.576-24.4736 105.2672-80.896 165.376-144.6912 60.5184-64.3072 116.1216-134.4512 150.4256-179.6096l157.696-52.8384 127.0784-106.496C1014.784 436.4288 1017.0368 410.8288 1002.8032 393.5232z" p-id="8467" fill="#ffffff"></path></svg>