<?xml version="1.0" standalone="no"?><!DOCTYPE svg PUBLIC "-//W3C//DTD SVG 1.1//EN" "http://www.w3.org/Graphics/SVG/1.1/DTD/svg11.dtd"><svg t="1496890998148" class="icon" style="" viewBox="0 0 1024 1024" version="1.1" xmlns="http://www.w3.org/2000/svg" p-id="6305" xmlns:xlink="http://www.w3.org/1999/xlink" width="24" height="24"><defs><style type="text/css"></style></defs><path d="M552.96 665.57952h-81.92a30.72 30.72 0 0 0 0 61.44h81.92a30.72 30.72 0 0 0 0-61.44z" fill="#ffffff" p-id="6306"></path><path d="M880.64 266.21952h-122.88v-20.48c0-79.0528-64.3072-143.36-143.36-143.36H389.12c-79.0528 0-143.36 64.3072-143.36 143.36v20.48H143.36c-56.46336 0-102.4 45.93664-102.4 102.4v450.56c0 56.46336 45.93664 102.4 102.4 102.4h737.28c56.46336 0 102.4-45.93664 102.4-102.4v-450.56c0-56.46336-45.93664-102.4-102.4-102.4z m-573.44-20.48a81.92 81.92 0 0 1 81.92-81.92h225.28a81.92 81.92 0 0 1 81.92 81.92v20.48H307.2v-20.48z m-163.84 81.92h737.28a40.96 40.96 0 0 1 40.96 40.96v101.25312c-76.4928 31.19104-241.00864 93.30688-300.15488 93.30688H402.55488c-60.98944 0-224.3584-62.0544-300.15488-93.24544v-101.31456a40.96 40.96 0 0 1 40.96-40.96z m737.28 532.48H143.36a40.96 40.96 0 0 1-40.96-40.96V536.28928C177.29536 566.35392 331.6736 624.64 402.55488 624.64h218.89024c69.03808 0 224.84992-58.51136 300.15488-88.49408V819.2a40.96 40.96 0 0 1-40.96 40.93952z" fill="#ffffff" p-id="6307"></path></svg>