<?xml version="1.0" standalone="no"?><!DOCTYPE svg PUBLIC "-//W3C//DTD SVG 1.1//EN" "http://www.w3.org/Graphics/SVG/1.1/DTD/svg11.dtd"><svg t="1496907605487" class="icon" style="" viewBox="0 0 1024 1024" version="1.1" xmlns="http://www.w3.org/2000/svg" p-id="12760" xmlns:xlink="http://www.w3.org/1999/xlink" width="24" height="24"><defs><style type="text/css"></style></defs><path d="M611.252503 18.77082C608.750002 18.240171 606.268757 17.952923 603.781803 17.848196 581.429186 16.992101 561.867621 32.280452 557.364845 54.242242 554.883568 66.159926 557.193681 78.342206 563.913169 88.546242 570.610067 98.738952 580.87182 105.703889 592.797168 108.136386 688.798503 127.958606 771.449918 184.091369 825.504489 266.191996 879.542117 348.326571 898.379373 446.435793 878.624023 542.460649 876.142747 554.417928 878.452829 566.573335 885.172348 576.754719 891.870642 586.947429 902.136646 593.90104 914.062026 596.366088 916.565923 596.864186 919.096692 597.168438 921.549669 597.284461 931.115442 597.648136 940.365731 595.045841 948.366895 589.788874 958.550854 583.078633 965.513681 572.802451 967.972305 560.884767 1018.993912 313.060321 858.990313 69.846171 611.252503 18.77082L611.252503 18.77082ZM689.787314 704.188323C692.483631 705.951496 752.68338 744.611064 798.934854 792.131739 816.353218 810.107314 845.524402 840.183094 844.756247 875.072915 844.104114 898.908253 830.659429 922.810089 803.632842 948.043528 796.913323 954.643394 736.713573 1010.886532 640.402463 1010.886532 614.020934 1010.886532 586.922201 1006.69651 559.846121 998.449524 531.397818 989.826141 502.464295 976.49906 473.939627 958.909812 361.322 892.374885 274.404073 806.708317 191.874296 681.05486 50.01337 465.097666 45.940643 280.138845 46.592807 245.281575 46.830437 84.411423 180.773671 21.13114 196.041821 14.432225 217.050546 4.686693 235.40826 0 252.317386 0 260.413316 0 268.171171 1.093849 275.343391 3.288623 290.114994 7.771539 310.615878 19.384972 324.391564 49.240002 343.184974 89.751862 360.9627 147.824702 373.103088 208.622933 385.872989 271.719238 350.507132 289.430156 316.301281 306.549605L314.947491 307.141104C314.947491 307.141104 254.433683 332.395768 243.791376 336.779636 233.335808 341.140852 227.886639 352.92551 231.457171 363.698393 255.859619 437.65248 293.126734 514.341888 339.184392 585.471504 384.496547 655.467675 438.385633 720.056848 494.993625 772.349145 499.043731 776.03539 504.243914 778.108463 509.742608 778.108463L511.592944 778.009414C517.544308 777.528289 523.158993 774.515619 526.895042 769.722802 536.09441 757.888621 550.208202 740.841317 565.100048 726.656714 593.331914 699.804455 618.867464 686.764653 643.148241 686.764653 649.797042 686.764653 656.399143 687.742448 662.760758 689.683921 668.849338 691.551822 678.702266 696.852635 689.787314 704.188323L689.787314 704.188323ZM498.226052 392.889747C486.273831 390.407727 476.012048 383.471088 469.313753 373.289705 462.567393 363.096995 460.25728 350.901962 462.715904 338.951758 467.292253 317.012589 486.804294 301.707264 509.13432 302.603016 511.615566 302.673765 514.123714 302.972338 516.627611 303.491662 622.504495 325.326103 690.892148 429.306446 669.092647 535.259384 666.655248 547.137412 659.720688 557.390972 649.531082 564.152165 641.507266 569.392128 632.213132 571.984524 622.719535 571.646324 620.26088 571.514725 617.756982 571.233125 615.248834 570.706727 603.279608 568.281305 592.989587 561.293715 586.292689 551.089711 579.600074 540.929552 577.28571 528.77554 579.744365 516.823909 585.380243 489.401375 580.031519 461.398668 564.565333 437.956732 549.147245 414.558642 525.61197 398.534439 498.226052 392.889747L498.226052 392.889747ZM545.63328 249.947043C521.008749 244.838648 505.111087 220.683512 510.166978 196.068476 514.699481 174.079783 534.210126 158.763132 556.56839 159.630553 559.022794 159.742355 561.553563 160.029603 564.056064 160.560252 649.746122 178.237254 723.462703 228.306479 771.737072 301.623761 819.939328 374.892978 836.776308 462.44442 819.099027 548.160512 816.640403 560.110747 809.677576 570.403902 799.487969 577.064619 791.469832 582.354137 782.240737 584.946533 772.703294 584.570135 770.216339 584.459729 767.691217 584.161156 765.1831 583.630507 740.615137 578.58439 724.689175 554.41228 729.750745 529.753367 742.493774 467.905133 730.353385 404.674405 695.518022 351.748189 660.682659 298.843167 607.49523 262.688272 545.63328 249.947043L545.63328 249.947043Z" p-id="12761" fill="#ffffff"></path></svg>