<?xml version="1.0" standalone="no"?><!DOCTYPE svg PUBLIC "-//W3C//DTD SVG 1.1//EN" "http://www.w3.org/Graphics/SVG/1.1/DTD/svg11.dtd"><svg t="1496907709905" class="icon" style="" viewBox="0 0 1170 1024" version="1.1" xmlns="http://www.w3.org/2000/svg" p-id="14935" xmlns:xlink="http://www.w3.org/1999/xlink" width="27.421875" height="24"><defs><style type="text/css"></style></defs><path d="M960.804571 1003.27619H209.13981a209.042286 209.042286 0 0 1-208.798477-208.798476V209.822476A209.091048 209.091048 0 0 1 209.13981 1.024h751.713523a209.042286 209.042286 0 0 1 208.798477 208.798476v584.655238a208.993524 208.993524 0 0 1-208.847239 208.798476zM209.13981 84.553143A125.415619 125.415619 0 0 0 83.870476 209.822476v584.655238a125.415619 125.415619 0 0 0 125.269334 125.269334h751.713523a125.415619 125.415619 0 0 0 125.269334-125.269334V209.822476a125.415619 125.415619 0 0 0-125.269334-125.269333H209.13981z" fill="#ffffff" p-id="14936"></path><path d="M584.996571 657.944381L41.252571 114.102857l59.050667-59.050667 484.693333 484.790858 484.644572-484.790858 59.050667 59.050667z" fill="#ffffff" p-id="14937"></path></svg>