<?xml version="1.0" standalone="no"?><!DOCTYPE svg PUBLIC "-//W3C//DTD SVG 1.1//EN" "http://www.w3.org/Graphics/SVG/1.1/DTD/svg11.dtd"><svg t="1496891322020" class="icon" style="" viewBox="0 0 1024 1024" version="1.1" xmlns="http://www.w3.org/2000/svg" p-id="11524" xmlns:xlink="http://www.w3.org/1999/xlink" width="24" height="24"><defs><style type="text/css"></style></defs><path d="M676.643137 369.443137L602.352941 361.411765l-2.007843-2.007843-32.12549-68.266667c-6.023529-12.047059-18.070588-20.078431-30.117647-20.078431s-24.094118 8.031373-30.117647 20.078431l-32.12549 66.258823-2.007844 2.007844-74.290196 10.039215c-14.054902 2.007843-24.094118 10.039216-28.109804 22.086275-4.015686 12.047059 0 26.101961 10.039216 34.133333l54.211765 50.196079s0 2.007843 2.007843 2.007843l-16.062745 76.298039c-2.007843 10.039216 0 22.086275 6.023529 28.109804 10.039216 12.047059 26.101961 14.054902 42.164706 6.023529l64.250981-36.141176h2.007843l66.258823 36.141176c6.023529 4.015686 12.047059 4.015686 18.070588 4.015686 10.039216 0 18.070588-4.015686 24.094118-12.047058 6.023529-8.031373 8.031373-18.070588 6.023529-28.109804l-10.039215-70.27451v-2.007843l54.211764-52.203922c10.039216-10.039216 14.054902-22.086275 10.039216-34.133333s-14.054902-22.086275-28.109804-24.094118zM604.360784 441.72549c-12.047059 12.047059-18.070588 32.12549-16.062745 48.188235l6.02353 34.133334-32.125491-16.062745c-10.039216-6.023529-20.078431-6.023529-26.10196-6.02353-6.023529 0-16.062745 2.007843-26.101961 6.02353l-28.109804 18.070588 6.023529-34.133333c4.015686-16.062745-4.015686-36.141176-16.062745-48.188236l-26.101961-24.094117 36.141177-4.015687c16.062745-2.007843 34.133333-14.054902 42.164706-30.117647l16.062745-32.12549 16.062745 32.12549c8.031373 16.062745 24.094118 28.109804 42.164706 30.117647l36.141176 4.015687-30.117647 22.086274z" fill="#ffffff" p-id="11525"></path><path d="M987.858824 877.427451l-102.4-289.129412c22.086275-50.196078 34.133333-102.4 34.133333-156.611764 0-210.823529-170.666667-381.490196-381.490196-381.490197s-381.490196 170.666667-381.490196 381.490197c0 56.219608 12.047059 110.431373 36.141176 162.635294L84.329412 869.396078c-4.015686 10.039216-2.007843 20.078431 4.015686 28.109804 6.023529 6.023529 16.062745 10.039216 26.101961 6.02353l156.611765-36.141177 88.345098 134.52549c4.015686 8.031373 14.054902 12.047059 22.086274 12.047059h2.007843c10.039216-2.007843 18.070588-8.031373 22.086275-16.062745l74.290196-188.737255c18.070588 2.007843 36.141176 4.015686 56.219608 4.015687 18.070588 0 38.14902-2.007843 56.219607-4.015687l64.250981 184.721569c4.015686 10.039216 12.047059 16.062745 22.086274 18.070588h4.015687c8.031373 0 16.062745-4.015686 22.086274-10.039216l94.368628-130.509803 154.603921 44.172549c10.039216 2.007843 20.078431 0 26.101961-8.031373 8.031373-10.039216 10.039216-20.078431 8.031373-30.117647z m-610.384314 52.203922L305.192157 823.215686c-4.015686-8.031373-14.054902-12.047059-22.086275-12.047059h-6.023529l-126.494118 30.117648 74.290196-188.737255c2.007843 2.007843 4.015686 4.015686 4.015687 6.023529 0 2.007843 2.007843 2.007843 2.007843 4.015686 2.007843 2.007843 2.007843 4.015686 4.015686 4.015687 0 2.007843 2.007843 2.007843 2.007843 4.015686 2.007843 2.007843 2.007843 4.015686 4.015686 4.015686l2.007844 2.007843 6.023529 6.02353 2.007843 2.007843c2.007843 2.007843 2.007843 4.015686 4.015686 4.015686l2.007844 2.007843 4.015686 4.015686 2.007843 2.007844 6.023529 6.023529 2.007844 2.007843c2.007843 2.007843 4.015686 4.015686 6.023529 4.015686l2.007843 2.007844 6.023529 6.023529 2.007844 2.007843c2.007843 2.007843 4.015686 4.015686 8.031372 6.02353l2.007843 2.007843c2.007843 2.007843 4.015686 4.015686 6.02353 4.015686 0 0 2.007843 0 2.007843 2.007843 2.007843 2.007843 4.015686 4.015686 8.031372 6.02353 2.007843 2.007843 6.023529 4.015686 8.031373 6.023529 2.007843 2.007843 4.015686 4.015686 8.031373 4.015686h2.007843c6.023529 4.015686 12.047059 8.031373 18.070588 10.039216 2.007843 2.007843 6.023529 4.015686 8.031372 4.015686 10.039216 4.015686 18.070588 10.039216 28.109804 14.054902l30.117647 12.047059c4.015686 2.007843 8.031373 2.007843 10.039216 4.015686l-48.188235 136.533334z m228.894117-176.690197c-44.172549 10.039216-90.352941 10.039216-134.52549 0-98.384314-20.078431-180.705882-82.321569-224.878431-172.674509-24.094118-46.180392-36.141176-96.376471-36.141177-148.580392 0-180.705882 146.572549-329.286275 329.286275-329.286275 180.705882 0 329.286275 146.572549 329.286274 329.286275 0 50.196078-12.047059 98.384314-34.133333 142.556862-2.007843 2.007843-2.007843 6.023529-4.015686 8.031373-48.188235 88.345098-130.509804 150.588235-224.878432 170.666666z m188.737255 60.235295c-10.039216-2.007843-22.086275 2.007843-28.109804 10.039215l-76.298039 104.407843-46.180392-130.509804h4.015686c2.007843 0 6.023529-2.007843 8.031373-2.007843h2.007843l18.070588-6.023529h2.007843c2.007843 0 4.015686-2.007843 8.031373-4.015686h2.007843c4.015686-2.007843 6.023529-2.007843 10.039216-4.015687 2.007843-2.007843 6.023529-2.007843 8.031372-4.015686 0 0 2.007843 0 2.007843-2.007843 2.007843-2.007843 4.015686-2.007843 6.02353-4.015686 0 0 2.007843 0 2.007843-2.007843 2.007843-2.007843 6.023529-4.015686 8.031373-4.015687 2.007843-2.007843 6.023529-4.015686 8.031372-4.015686 0 0 2.007843 0 2.007843-2.007843 2.007843-2.007843 4.015686-2.007843 6.02353-4.015686 0 0 2.007843 0 2.007843-2.007844 2.007843-2.007843 6.023529-4.015686 8.031372-6.023529 2.007843-2.007843 4.015686-4.015686 8.031373-6.023529l2.007843-2.007843c2.007843-2.007843 4.015686-4.015686 6.023529-4.015687 0 0 2.007843 0 2.007844-2.007843 2.007843-2.007843 6.023529-4.015686 8.031372-6.023529h2.007843l6.02353-6.02353 2.007843-2.007843 6.023529-6.023529 2.007843-2.007843c2.007843-2.007843 4.015686-4.015686 8.031373-6.02353l2.007843-2.007843 6.023529-6.023529 2.007844-2.007844 6.023529-6.023529c2.007843-2.007843 4.015686-6.023529 6.023529-8.031372l6.02353-6.02353s0-2.007843 2.007843-2.007843c2.007843-2.007843 4.015686-6.023529 6.023529-8.031373 2.007843-2.007843 4.015686-6.023529 6.02353-8.031372 2.007843-2.007843 2.007843-4.015686 4.015686-4.015686l70.27451 198.77647-124.486275-38.149019z" fill="#ffffff" p-id="11526"></path></svg>