<?xml version="1.0" standalone="no"?><!DOCTYPE svg PUBLIC "-//W3C//DTD SVG 1.1//EN" "http://www.w3.org/Graphics/SVG/1.1/DTD/svg11.dtd"><svg t="1496894400969" class="icon" style="" viewBox="0 0 1114 1024" version="1.1" xmlns="http://www.w3.org/2000/svg" p-id="12037" xmlns:xlink="http://www.w3.org/1999/xlink" width="44.603515625" height="41"><defs><style type="text/css"></style></defs><path d="M715.861333 393.443556c-13.340444-13.340444-34.958222-13.340444-48.298667 0l-84.48 84.48-84.48-84.48c-13.340444-13.340444-34.929778-13.340444-48.270222 0-13.340444 13.340444-13.340444 34.929778 0 48.270222l84.48 84.48-84.48 84.48c-13.340444 13.340444-13.340444 34.958222 0 48.270222 13.340444 13.340444 34.929778 13.340444 48.270222 0l84.48-84.48 84.48 84.48c13.340444 13.340444 34.958222 13.340444 48.298667 0.028444 13.312-13.340444 13.312-34.958222 0-48.298667l-84.48-84.48 84.48-84.48C729.173333 428.373333 729.173333 406.784 715.861333 393.443556L715.861333 393.443556zM583.082667 99.527111c-235.633778 0-426.666667 191.032889-426.666667 426.666667 0 235.633778 191.032889 426.666667 426.666667 426.666667 235.662222 0 426.666667-191.032889 426.666667-426.666667C1009.749333 290.56 818.716444 99.527111 583.082667 99.527111L583.082667 99.527111zM583.082667 884.593778c-197.916444 0-358.4-160.455111-358.4-358.4 0-197.916444 160.483556-358.4 358.4-358.4 197.944889 0 358.4 160.483556 358.4 358.4C941.482667 724.138667 781.027556 884.593778 583.082667 884.593778L583.082667 884.593778zM583.082667 884.593778" p-id="12038" fill="#ffffff"></path></svg>