<?xml version="1.0" standalone="no"?><!DOCTYPE svg PUBLIC "-//W3C//DTD SVG 1.1//EN" "http://www.w3.org/Graphics/SVG/1.1/DTD/svg11.dtd"><svg t="1497068494946" class="icon" style="" viewBox="0 0 1024 1024" version="1.1" xmlns="http://www.w3.org/2000/svg" p-id="995" xmlns:xlink="http://www.w3.org/1999/xlink" width="32" height="32"><defs><style type="text/css"></style></defs><path d="M512 0C229.248 0 0 229.248 0 512s229.248 512 512 512 512-229.248 512-512S794.752 0 512 0zM512 976C255.728 976 48 768.256 48 512S255.728 48 512 48s464 207.744 464 464S768.272 976 512 976z" p-id="996" fill="#ffffff"></path><path d="M796.384 353.616c12.496 12.496 12.656 32.608 0.32 44.928L524.544 670.72c-12.32 12.336-32.432 12.192-44.944-0.32l0 0c-12.496-12.496-12.656-32.624-0.336-44.944l272.16-272.176C763.76 340.96 783.888 341.104 796.384 353.616L796.384 353.616z" p-id="997" fill="#ffffff"></path><path d="M525.696 670.384c-12.48 12.496-32.592 12.656-44.928 0.32l-272.16-272.16c-12.336-12.32-12.208-32.432 0.336-44.944l0 0c12.48-12.496 32.624-12.64 44.944-0.32l272.16 272.16C538.352 637.776 538.24 657.888 525.696 670.384L525.696 670.384z" p-id="998" fill="#ffffff"></path></svg>